<?xml version="1.0" encoding="utf-8"?>
<!-- Generator: Adobe Illustrator 18.0.0, SVG Export Plug-In . SVG Version: 6.00 Build 0)  -->
<!DOCTYPE svg PUBLIC "-//W3C//DTD SVG 1.1//EN" "http://www.w3.org/Graphics/SVG/1.1/DTD/svg11.dtd">
<svg version="1.1" id="Layer_1" xmlns="http://www.w3.org/2000/svg" xmlns:xlink="http://www.w3.org/1999/xlink" x="0px" y="0px"
	 viewBox="0 0 147.1 48.3" enable-background="new 0 0 147.1 48.3" xml:space="preserve">
<g>
	<g>
		<path fill="#dbdbdb" d="M0,48.3V0h3.2l20.9,23.8L45.1,0h3.2v48.3h-9.7l0-28L24.1,36.4L9.7,20.3v28H0z"/>
		<path fill="#dbdbdb" d="M62.5,41.3C57.8,36.7,55.5,31,55.5,24c0-6.8,2.3-12.5,6.9-17.1C67.1,2.3,72.8,0,79.6,0
			c6.9,0,12.8,2.1,17.7,6.4l-6.4,7c-3.3-2.6-7-3.9-11.3-3.9c-4.3,0-7.8,1.4-10.5,4.1c-2.6,2.7-4,6.1-4,10.3c0,4.5,1.4,8,4,10.7
			c2.7,2.6,6.2,4,10.5,4c4.3,0,8.1-1.3,11.2-3.8l6.4,7c-4.9,4.3-10.8,6.4-17.7,6.4C72.8,48.2,67.1,45.9,62.5,41.3z"/>
		<path fill="#dbdbdb" d="M112.3,41.3c-4.6-4.6-6.9-10.4-6.9-17.3c0-6.8,2.3-12.5,6.9-17.1c4.6-4.6,10.3-6.9,17.1-6.9
			c6.9,0,12.8,2.1,17.7,6.4l-6.4,7c-3.3-2.6-7-3.9-11.3-3.9c-4.3,0-7.8,1.4-10.5,4.1c-2.6,2.7-4,6.1-4,10.3c0,4.5,1.4,8,4,10.7
			c2.7,2.6,6.2,4,10.5,4c4.3,0,8.1-1.3,11.2-3.8l6.4,7c-4.9,4.3-10.8,6.4-17.7,6.4C122.6,48.2,116.9,45.9,112.3,41.3z"/>
		<path fill="#808080" d="M71.1,32.3c-2.2-2.2-3.3-4.9-3.3-8.2c0-3.2,1.1-5.9,3.3-8.2c2.2-2.2,4.9-3.3,8.2-3.3c3.3,0,6.1,1,8.5,3.1
			l-3.1,3.4c-1.6-1.2-3.4-1.8-5.4-1.8c-2.1,0-3.7,0.7-5,1.9c-1.3,1.3-1.9,2.9-1.9,4.9c0,2.1,0.6,3.8,1.9,5.1c1.3,1.3,2.9,1.9,5,1.9
			c2.1,0,3.9-0.6,5.4-1.8l3.1,3.4c-2.3,2-5.2,3.1-8.5,3.1C76,35.6,73.3,34.5,71.1,32.3z"/>
		<path fill="#3FA9F5" d="M121.1,32.3c-2.2-2.2-3.3-4.9-3.3-8.2c0-3.2,1.1-5.9,3.3-8.2c2.2-2.2,4.9-3.3,8.2-3.3c3.3,0,6.1,1,8.5,3.1
			l-3.1,3.4c-1.6-1.2-3.4-1.8-5.4-1.8c-2.1,0-3.7,0.7-5,1.9c-1.3,1.3-1.9,2.9-1.9,4.9c0,2.1,0.6,3.8,1.9,5.1c1.3,1.3,2.9,1.9,5,1.9
			c2.1,0,3.9-0.6,5.4-1.8l3.1,3.4c-2.3,2-5.2,3.1-8.5,3.1C126,35.6,123.3,34.5,121.1,32.3z"/>
	</g>
</g>
</svg>
