<?xml version="1.0" standalone="no"?>
<!DOCTYPE svg PUBLIC "-//W3C//DTD SVG 20010904//EN"
 "http://www.w3.org/TR/2001/REC-SVG-20010904/DTD/svg10.dtd">
<svg version="1.0" xmlns="http://www.w3.org/2000/svg"
 width="1000.000000pt" height="1000.000000pt" viewBox="0 0 1000.000000 1000.000000"
 preserveAspectRatio="xMidYMid meet">
<metadata>
Created by potrace 1.14, written by Peter Selinger 2001-2017
</metadata>
<g transform="translate(0.000000,1000.000000) scale(0.100000,-0.100000)"
fill="#000000" stroke="none">
<path d="M897 5854 c-4 -4 -7 -403 -7 -886 l0 -878 180 0 180 0 2 503 3 504
260 -289 260 -289 25 30 c14 16 131 147 260 291 l235 261 3 -506 2 -505 180 0
180 0 -2 883 -3 882 -55 3 c-67 4 -26 45 -480 -473 -188 -214 -345 -389 -349
-387 -3 1 -175 195 -381 430 l-376 427 -55 3 c-30 2 -58 0 -62 -4z"/>
<path d="M3820 4975 l0 -885 180 0 180 0 -2 883 -3 882 -177 3 -178 2 0 -885z"/>
<path d="M5347 5853 c-4 -3 -7 -402 -7 -885 l0 -878 180 0 180 0 0 364 0 364
303 5 c249 3 312 7 362 21 201 59 315 177 351 363 39 203 -11 403 -126 506
-93 83 -211 123 -405 138 -141 10 -829 12 -838 2z m929 -348 c81 -24 124 -83
124 -169 0 -63 -36 -126 -90 -156 -45 -25 -48 -25 -327 -28 l-283 -3 0 185 0
186 263 0 c203 0 275 -3 313 -15z"/>
<path d="M8201 5830 c-190 -54 -355 -188 -409 -333 -62 -165 -19 -386 93 -485
93 -82 245 -140 450 -172 220 -34 307 -96 307 -219 0 -122 -98 -190 -278 -192
-92 -1 -135 5 -224 33 -87 28 -114 42 -167 91 l-44 41 -120 -120 -120 -119 51
-47 c61 -57 162 -118 250 -153 201 -79 487 -85 670 -14 146 56 278 170 334
288 27 57 31 79 35 166 5 159 -27 260 -112 352 -83 90 -255 169 -434 199 -208
35 -315 87 -329 160 -14 77 51 170 138 196 24 7 91 13 153 12 131 0 196 -21
280 -89 l52 -43 119 119 119 119 -30 25 c-191 161 -321 206 -589 204 -95 0
-149 -5 -195 -19z"/>
</g>
</svg>
