<?xml version="1.0" encoding="utf-8"?>
<!-- Generator: Adobe Illustrator 18.0.0, SVG Export Plug-In . SVG Version: 6.00 Build 0)  -->
<!DOCTYPE svg PUBLIC "-//W3C//DTD SVG 1.1//EN" "http://www.w3.org/Graphics/SVG/1.1/DTD/svg11.dtd">
<svg version="1.1" id="Layer_1" xmlns="http://www.w3.org/2000/svg" xmlns:xlink="http://www.w3.org/1999/xlink" x="0px" y="0px"
	 viewBox="0 0 406.5 50" enable-background="new 0 0 406.5 50" xml:space="preserve">
<g>
	<g>
		<path fill="#4D4D4D" d="M0,48.3V0h3.2l20.9,23.8L45.1,0h3.2v48.3h-9.7l0-28L24.1,36.4L9.7,20.3v28H0z"/>
		<path fill="#4D4D4D" d="M62.5,41.3C57.8,36.7,55.5,31,55.5,24c0-6.8,2.3-12.5,6.9-17.1C67.1,2.3,72.8,0,79.6,0
			c6.9,0,12.8,2.1,17.7,6.4l-6.4,7c-3.3-2.6-7-3.9-11.3-3.9c-4.3,0-7.8,1.4-10.5,4.1c-2.6,2.7-4,6.1-4,10.3c0,4.5,1.4,8,4,10.7
			c2.7,2.6,6.2,4,10.5,4c4.3,0,8.1-1.3,11.2-3.8l6.4,7c-4.9,4.3-10.8,6.4-17.7,6.4C72.8,48.2,67.1,45.9,62.5,41.3z"/>
		<path fill="#4D4D4D" d="M112.3,41.3c-4.6-4.6-6.9-10.4-6.9-17.3c0-6.8,2.3-12.5,6.9-17.1c4.6-4.6,10.3-6.9,17.1-6.9
			c6.9,0,12.8,2.1,17.7,6.4l-6.4,7c-3.3-2.6-7-3.9-11.3-3.9c-4.3,0-7.8,1.4-10.5,4.1c-2.6,2.7-4,6.1-4,10.3c0,4.5,1.4,8,4,10.7
			c2.7,2.6,6.2,4,10.5,4c4.3,0,8.1-1.3,11.2-3.8l6.4,7c-4.9,4.3-10.8,6.4-17.7,6.4C122.6,48.2,116.9,45.9,112.3,41.3z"/>
		<path fill="#808080" d="M71.1,32.3c-2.2-2.2-3.3-4.9-3.3-8.2c0-3.2,1.1-5.9,3.3-8.2c2.2-2.2,4.9-3.3,8.2-3.3c3.3,0,6.1,1,8.5,3.1
			l-3.1,3.4c-1.6-1.2-3.4-1.8-5.4-1.8c-2.1,0-3.7,0.7-5,1.9c-1.3,1.3-1.9,2.9-1.9,4.9c0,2.1,0.6,3.8,1.9,5.1c1.3,1.3,2.9,1.9,5,1.9
			c2.1,0,3.9-0.6,5.4-1.8l3.1,3.4c-2.3,2-5.2,3.1-8.5,3.1C76,35.6,73.3,34.5,71.1,32.3z"/>
		<path fill="#3FA9F5" d="M121.1,32.3c-2.2-2.2-3.3-4.9-3.3-8.2c0-3.2,1.1-5.9,3.3-8.2c2.2-2.2,4.9-3.3,8.2-3.3c3.3,0,6.1,1,8.5,3.1
			l-3.1,3.4c-1.6-1.2-3.4-1.8-5.4-1.8c-2.1,0-3.7,0.7-5,1.9c-1.3,1.3-1.9,2.9-1.9,4.9c0,2.1,0.6,3.8,1.9,5.1c1.3,1.3,2.9,1.9,5,1.9
			c2.1,0,3.9-0.6,5.4-1.8l3.1,3.4c-2.3,2-5.2,3.1-8.5,3.1C126,35.6,123.3,34.5,121.1,32.3z"/>
	</g>
	<g>
		<path fill="#4D4D4D" d="M168,21.4v-17h1.1l7.4,8.4l7.4-8.4h1.1v17h-3.4l0-9.8l-5.1,5.7l-5.1-5.7v9.8H168z"/>
		<path fill="#4D4D4D" d="M188.4,11.5c1.4-0.9,3.1-1.4,5-1.4c1.4,0,2.4,0.4,3.2,1.1c0.8,0.8,1.2,1.9,1.2,3.4v6.8h-3.2v-0.9
			c-0.9,0.6-1.8,0.9-2.5,0.9c-1.5,0-2.6-0.3-3.4-1c-0.8-0.6-1.1-1.5-1.1-2.7c0-1.1,0.4-2,1.1-2.8c0.7-0.8,1.9-1.2,3.5-1.2
			c0.7,0,1.6,0.2,2.5,0.7v-0.3c0-0.8-0.6-1.3-1.8-1.4c-1.4,0-2.4,0.2-3.2,0.7L188.4,11.5z M194.6,18v-1.3c-0.3-0.6-1-0.9-2.2-0.9
			c-1.4,0.2-2.1,0.7-2.2,1.6c0.1,0.9,0.8,1.4,2.2,1.5C193.6,18.9,194.3,18.6,194.6,18z"/>
		<path fill="#4D4D4D" d="M200.6,21.4v-17h3.2v17H200.6z"/>
		<path fill="#4D4D4D" d="M207.3,11.5c1.4-0.9,3.1-1.4,5-1.4c1.4,0,2.4,0.4,3.2,1.1c0.8,0.8,1.2,1.9,1.2,3.4v6.8h-3.2v-0.9
			c-0.9,0.6-1.8,0.9-2.5,0.9c-1.5,0-2.6-0.3-3.4-1c-0.8-0.6-1.1-1.5-1.1-2.7c0-1.1,0.4-2,1.1-2.8c0.7-0.8,1.9-1.2,3.5-1.2
			c0.7,0,1.6,0.2,2.5,0.7v-0.3c0-0.8-0.6-1.3-1.8-1.4c-1.4,0-2.4,0.2-3.2,0.7L207.3,11.5z M213.5,18v-1.3c-0.3-0.6-1-0.9-2.2-0.9
			c-1.4,0.2-2.1,0.7-2.2,1.6c0.1,0.9,0.8,1.4,2.2,1.5C212.5,18.9,213.2,18.6,213.5,18z"/>
		<path fill="#4D4D4D" d="M226.5,17.5v-7.4h3.2v10.4c0,1.6-0.5,2.9-1.5,4s-2.2,1.6-3.5,1.7l-0.7,0.1c-1.6,0-3-0.7-4.3-1.9l1.5-1.7
			c0.9,0.7,1.8,1.1,2.6,1.1c1,0,1.7-0.2,2.1-0.7c0.4-0.5,0.6-1.2,0.6-2.1v-0.6c-0.8,0.7-1.7,1-2.8,1c-1.4,0-2.5-0.4-3.3-1.3
			c-0.8-0.9-1.1-1.9-1.1-3v-7h3.2v6.2c0,0.8,0.2,1.3,0.6,1.8s0.9,0.6,1.7,0.7C225.5,18.7,226,18.3,226.5,17.5z"/>
		<path fill="#4D4D4D" d="M238.7,10.4c0.6,0.3,1.1,0.6,1.7,1.1l-1.8,2c-0.5-0.6-1.2-0.9-1.9-0.9c-0.8,0-1.3,0.1-1.5,0.4
			c-0.3,0.3-0.3,0.5,0,0.8c0.3,0.2,0.8,0.4,1.5,0.6c1.1,0.1,2,0.4,2.8,1c0.7,0.5,1.1,1.5,1.1,2.8c0,1.1-0.4,1.9-1.3,2.5
			c-0.8,0.6-1.8,0.9-3,0.9c-1.1,0-2-0.2-2.7-0.5s-1.3-0.7-1.8-1.2l1.8-2c0.5,0.6,1.3,1,2.4,1.1c0.9,0,1.4-0.1,1.7-0.4
			c0.3-0.3,0.3-0.6,0.1-0.8c-0.2-0.3-0.8-0.5-1.8-0.6c-0.9-0.1-1.8-0.4-2.5-0.8s-1.1-1.3-1.1-2.6c0-1.2,0.4-2.1,1.3-2.7
			c0.9-0.6,1.8-0.9,2.7-0.9C237.3,10,238.1,10.2,238.7,10.4z"/>
		<path fill="#4D4D4D" d="M243.1,6.2c0.3-0.3,0.7-0.5,1.2-0.5c0.5,0,1,0.2,1.3,0.5s0.5,0.7,0.5,1.1s-0.2,0.8-0.5,1.1
			c-0.3,0.3-0.7,0.5-1.2,0.5s-0.9-0.2-1.2-0.5c-0.3-0.3-0.5-0.7-0.5-1.1S242.8,6.5,243.1,6.2z M246,21.4V10.1h-3.2v11.3H246z"/>
		<path fill="#4D4D4D" d="M248.9,11.5c1.4-0.9,3.1-1.4,5-1.4c1.4,0,2.4,0.4,3.2,1.1c0.8,0.8,1.2,1.9,1.2,3.4v6.8h-3.2v-0.9
			c-0.9,0.6-1.8,0.9-2.5,0.9c-1.5,0-2.6-0.3-3.4-1c-0.8-0.6-1.1-1.5-1.1-2.7c0-1.1,0.4-2,1.1-2.8c0.7-0.8,1.9-1.2,3.5-1.2
			c0.7,0,1.6,0.2,2.5,0.7v-0.3c0-0.8-0.6-1.3-1.8-1.4c-1.4,0-2.4,0.2-3.2,0.7L248.9,11.5z M255.2,18v-1.3c-0.3-0.6-1-0.9-2.2-0.9
			c-1.4,0.2-2.1,0.7-2.2,1.6c0.1,0.9,0.8,1.4,2.2,1.5C254.2,18.9,254.9,18.6,255.2,18z"/>
		<path fill="#4D4D4D" d="M264.3,14.2v7.2h-3.2v-11l3.2-0.3v1c0.8-0.7,1.7-1,2.7-1c1.4,0,2.5,0.4,3.3,1.3c0.8,0.9,1.1,1.9,1.1,3v7
			h-3.2v-6.2c0-0.8-0.2-1.3-0.6-1.8c-0.4-0.4-0.9-0.6-1.7-0.7C265.4,12.8,264.8,13.3,264.3,14.2z"/>
		<path fill="#4D4D4D" d="M283.9,19c-1.6-1.6-2.4-3.6-2.4-6.1c0-2.4,0.8-4.4,2.4-6c1.6-1.6,3.6-2.4,6-2.4c2.4,0,4.5,0.8,6.2,2.3
			l-2.3,2.5c-1.2-0.9-2.5-1.4-4-1.4c-1.5,0-2.8,0.5-3.7,1.4c-0.9,0.9-1.4,2.2-1.4,3.6c0,1.6,0.5,2.8,1.4,3.8
			c0.9,0.9,2.2,1.4,3.7,1.4s2.8-0.4,4-1.3l2.3,2.5c-1.7,1.5-3.8,2.3-6.2,2.3C287.6,21.4,285.5,20.6,283.9,19z"/>
		<path fill="#4D4D4D" d="M300.6,19.9c-1.1-1.1-1.7-2.5-1.7-4.1c0-1.6,0.6-3,1.7-4.1c1.1-1.1,2.5-1.7,4.1-1.7c1.6,0,3,0.6,4.1,1.7
			c1.1,1.1,1.7,2.5,1.7,4.1c0,1.6-0.6,3-1.7,4.1c-1.1,1.1-2.5,1.7-4.1,1.7C303.1,21.5,301.7,21,300.6,19.9z M304.7,18.8
			c0.9,0,1.6-0.3,2.1-0.9c0.5-0.6,0.8-1.3,0.8-2.2s-0.3-1.6-0.8-2.2c-0.5-0.6-1.2-0.9-2.1-0.9c-0.9,0-1.5,0.3-2.1,0.9
			c-0.5,0.6-0.8,1.3-0.8,2.2s0.3,1.6,0.8,2.2C303.1,18.5,303.8,18.8,304.7,18.8z"/>
		<path fill="#4D4D4D" d="M315.8,14.2v7.2h-3.2v-11l3.2-0.3v1c0.7-0.7,1.6-1,2.7-1c1.4,0,2.5,0.4,3.3,1.3c0.8-0.9,2.1-1.3,3.7-1.3
			c1.4,0,2.5,0.4,3.3,1.3c0.8,0.9,1.1,1.9,1.1,3v7h-3.2v-6.2c0-0.8-0.2-1.3-0.5-1.8c-0.3-0.4-0.9-0.6-1.7-0.7
			c-0.6,0-1.2,0.5-1.6,1.2c0,0.2-0.1,0.5-0.1,0.7v6.7h-3.2v-6.2c0-0.8-0.2-1.3-0.5-1.8c-0.3-0.4-0.9-0.6-1.7-0.7
			C316.9,12.8,316.3,13.3,315.8,14.2z"/>
		<path fill="#4D4D4D" d="M332.7,26.2V10.4l3.2-0.3V11c0.8-0.6,1.7-0.9,2.5-0.9c1.7,0,3.1,0.6,4.1,1.7c1,1.1,1.5,2.5,1.5,4
			s-0.5,2.8-1.5,4c-1,1.1-2.4,1.7-4.1,1.7c-1.1-0.1-2-0.4-2.5-0.9v5.7L332.7,26.2z M335.8,14.7v1.8c0.2,1.3,0.9,2,2.4,2.2
			c1.8-0.1,2.8-1.1,3.1-2.8c-0.1-2.1-1.1-3.2-3.1-3.3C336.8,12.9,336,13.6,335.8,14.7z"/>
		<path fill="#4D4D4D" d="M353.1,17.4v-7.3h3.2v11.3h-3.2v-1c-0.8,0.7-1.7,1-2.7,1c-1.4,0-2.5-0.4-3.3-1.3c-0.8-0.9-1.1-1.9-1.1-3
			v-7h3.2v6.2c0,0.8,0.2,1.3,0.6,1.8c0.4,0.4,0.9,0.6,1.7,0.7C352,18.7,352.6,18.2,353.1,17.4z"/>
		<path fill="#4D4D4D" d="M364.1,21.4c-1.3,0-2.3-0.4-3.1-1.1c-0.8-0.7-1.1-1.6-1.1-2.8v-4.9h-1.7v-2.6h1.7V7l3.2-0.3v3.4h1.7v2.6
			h-1.7v4.4c0,0.6,0.1,1,0.4,1.3c0.3,0.2,0.6,0.4,1,0.4c0.1,0,0.4,0,0.8-0.1l0.7,2.3C365.4,21.2,364.8,21.4,364.1,21.4z"/>
		<path fill="#4D4D4D" d="M368.2,6.2c0.3-0.3,0.7-0.5,1.2-0.5c0.5,0,1,0.2,1.3,0.5s0.5,0.7,0.5,1.1s-0.2,0.8-0.5,1.1
			C370.4,8.8,370,9,369.5,9s-0.9-0.2-1.2-0.5c-0.3-0.3-0.5-0.7-0.5-1.1S367.9,6.5,368.2,6.2z M371.1,21.4V10.1h-3.2v11.3H371.1z"/>
		<path fill="#4D4D4D" d="M377,14.2v7.2h-3.2v-11l3.2-0.3v1c0.8-0.7,1.7-1,2.7-1c1.4,0,2.5,0.4,3.3,1.3c0.8,0.9,1.1,1.9,1.1,3v7
			h-3.2v-6.2c0-0.8-0.2-1.3-0.6-1.8c-0.4-0.4-0.9-0.6-1.7-0.7C378,12.8,377.5,13.3,377,14.2z"/>
		<path fill="#4D4D4D" d="M397.5,10.4v10.1c0,1.6-0.5,2.9-1.4,4s-2.1,1.6-3.6,1.7l-0.7,0.1c-2.2,0-3.9-0.7-5.1-1.9l1.5-1.7
			c0.8,0.6,1.8,0.9,3,1c1.2,0,2-0.3,2.5-0.8c0.4-0.6,0.6-1.2,0.6-1.9v-0.6c-0.8,0.7-1.8,1-2.9,1c-1.7,0-3-0.5-3.9-1.5
			c-0.9-1-1.3-2.4-1.3-4.1c0-1.7,0.5-3,1.4-4.1s2.3-1.6,4-1.6c1.3,0.1,2.2,0.4,2.7,1v-1L397.5,10.4z M394.3,16.8v-1.8
			c-0.2-1.3-0.9-2-2.4-2.2c-1.9,0.1-2.9,1-3.1,2.8c0.1,2.1,1.1,3.2,3.1,3.3C393.4,18.6,394.1,17.9,394.3,16.8z"/>
		<path fill="#4D4D4D" d="M169.6,42.7c-1.6-1.6-2.4-3.6-2.4-6.1c0-2.4,0.8-4.4,2.4-6c1.6-1.6,3.6-2.4,6-2.4c2.4,0,4.5,0.8,6.2,2.3
			l-2.3,2.5c-1.2-0.9-2.5-1.4-4-1.4c-1.5,0-2.8,0.5-3.7,1.4c-0.9,0.9-1.4,2.2-1.4,3.6c0,1.6,0.5,2.8,1.4,3.8
			c0.9,0.9,2.2,1.4,3.7,1.4s2.8-0.4,4-1.3l2.3,2.5c-1.7,1.5-3.8,2.3-6.2,2.3C173.3,45.1,171.3,44.3,169.6,42.7z"/>
		<path fill="#4D4D4D" d="M188.5,37.5v7.7h-3.2v-17h3.2v6.7c0.8-0.7,1.7-1,2.7-1c1.4,0,2.5,0.4,3.3,1.3c0.8,0.9,1.1,1.9,1.1,3v7
			h-3.2v-6.2c0-0.8-0.2-1.3-0.6-1.8c-0.4-0.4-0.9-0.6-1.7-0.7C189.5,36.5,189,36.9,188.5,37.5z"/>
		<path fill="#4D4D4D" d="M198,35.2c1.4-0.9,3.1-1.4,5-1.4c1.4,0,2.4,0.4,3.2,1.1c0.8,0.8,1.2,1.9,1.2,3.4v6.8h-3.2v-0.9
			c-0.9,0.6-1.8,0.9-2.5,0.9c-1.5,0-2.6-0.3-3.4-1c-0.8-0.6-1.1-1.5-1.1-2.7c0-1.1,0.4-2,1.1-2.8c0.7-0.8,1.9-1.2,3.5-1.2
			c0.7,0,1.6,0.2,2.5,0.7v-0.3c0-0.8-0.6-1.3-1.8-1.4c-1.4,0-2.4,0.2-3.2,0.7L198,35.2z M204.2,41.7v-1.3c-0.3-0.6-1-0.9-2.2-0.9
			c-1.4,0.2-2.1,0.7-2.2,1.6c0.1,0.9,0.8,1.4,2.2,1.5C203.2,42.6,203.9,42.3,204.2,41.7z"/>
		<path fill="#4D4D4D" d="M210.2,45.1v-17h3.2v17H210.2z"/>
		<path fill="#4D4D4D" d="M216.7,45.1v-17h3.2v17H216.7z"/>
		<path fill="#4D4D4D" d="M222.6,39.5c0-1.7,0.5-3,1.6-4.1s2.4-1.6,4.1-1.6c1.7,0,3,0.5,4,1.6s1.5,2.4,1.5,4.1v1.1h-7.8
			c0.1,0.6,0.3,1.1,0.8,1.4c0.5,0.3,1,0.5,1.6,0.5c1.1,0,2-0.3,2.8-0.9l1.8,1.8c-0.8,1.1-2.4,1.7-4.6,1.7c-1.7,0-3-0.5-4.1-1.6
			C223.1,42.5,222.6,41.1,222.6,39.5z M229.8,36.9c-0.5-0.3-1-0.5-1.6-0.5c-0.6,0-1.1,0.2-1.6,0.5c-0.5,0.3-0.7,0.8-0.7,1.4h4.5
			C230.5,37.7,230.3,37.3,229.8,36.9z"/>
		<path fill="#4D4D4D" d="M239.3,37.9v7.2h-3.2v-11l3.2-0.3v1c0.8-0.7,1.7-1,2.7-1c1.4,0,2.5,0.4,3.3,1.3c0.8,0.9,1.1,1.9,1.1,3v7
			h-3.2v-6.2c0-0.8-0.2-1.3-0.6-1.8c-0.4-0.4-0.9-0.6-1.7-0.7C240.4,36.5,239.8,37,239.3,37.9z"/>
		<path fill="#4D4D4D" d="M259.8,34.2v10.1c0,1.6-0.5,2.9-1.4,4s-2.1,1.6-3.6,1.7l-0.7,0.1c-2.2,0-3.9-0.7-5.1-1.9l1.5-1.7
			c0.8,0.6,1.8,0.9,3,1c1.2,0,2-0.3,2.5-0.8c0.4-0.6,0.6-1.2,0.6-1.9v-0.6c-0.8,0.7-1.8,1-2.9,1c-1.7,0-3-0.5-3.9-1.5
			c-0.9-1-1.3-2.4-1.3-4.1c0-1.7,0.5-3,1.4-4.1s2.3-1.6,4-1.6c1.3,0.1,2.2,0.4,2.7,1v-1L259.8,34.2z M256.6,40.5v-1.8
			c-0.2-1.3-0.9-2-2.4-2.2c-1.9,0.1-2.9,1-3.1,2.8c0.1,2.1,1.1,3.2,3.1,3.3C255.7,42.3,256.5,41.6,256.6,40.5z"/>
		<path fill="#4D4D4D" d="M261.5,39.5c0-1.7,0.5-3,1.6-4.1s2.4-1.6,4.1-1.6c1.7,0,3,0.5,4,1.6s1.5,2.4,1.5,4.1v1.1h-7.8
			c0.1,0.6,0.3,1.1,0.8,1.4c0.5,0.3,1,0.5,1.6,0.5c1.1,0,2-0.3,2.8-0.9l1.8,1.8c-0.8,1.1-2.4,1.7-4.6,1.7c-1.7,0-3-0.5-4.1-1.6
			C262,42.5,261.5,41.1,261.5,39.5z M268.7,36.9c-0.5-0.3-1-0.5-1.6-0.5c-0.6,0-1.1,0.2-1.6,0.5c-0.5,0.3-0.7,0.8-0.7,1.4h4.5
			C269.4,37.7,269.2,37.3,268.7,36.9z"/>
	</g>
</g>
</svg>
